<svg width="565" height="562" viewBox="0 0 565 562" fill="none" xmlns="http://www.w3.org/2000/svg">
<rect width="565" height="562" fill="#1E1E1E"/>
<path d="M437.262 280.315C437.262 366.016 367.788 435.49 282.088 435.49C196.387 435.49 126.913 366.016 126.913 280.315C126.913 194.615 196.387 125.141 282.088 125.141C367.788 125.141 437.262 194.615 437.262 280.315ZM149.368 280.315C149.368 353.615 208.789 413.035 282.088 413.035C355.387 413.035 414.808 353.615 414.808 280.315C414.808 207.016 355.387 147.595 282.088 147.595C208.789 147.595 149.368 207.016 149.368 280.315Z" fill="#04BADC"/>
<path fill-rule="evenodd" clip-rule="evenodd" d="M237.037 0.241222C240.791 -1.01019 249.551 1.99319 254.557 24.018C259.196 44.4303 273.509 44.2049 282.553 44.0625C283.268 44.0512 283.949 44.0405 284.591 44.0405C293.35 44.0405 306.115 43.2414 312.122 40.045C317.867 36.9876 324.346 20.2891 328.193 10.3743C329.373 7.33258 330.305 4.92934 330.893 3.75422C332.895 -0.250282 337.567 -0.256321 339.653 0.241222C353.001 4.33217 380.949 12.7644 385.955 13.7655C390.96 14.7666 389.709 21.6911 388.457 25.0281C385.537 32.9537 380.949 50.8071 385.955 58.8161C391.099 67.0466 392.859 68.5106 398.191 72.9432C399.344 73.9022 400.665 75.0003 402.223 76.3359C410.983 83.8443 423.497 86.3471 432.257 85.0957C438.547 84.197 447.419 75.5544 453.775 69.363C456.27 66.9327 458.377 64.88 459.788 63.8218C463.792 60.8184 467.296 62.5704 468.548 63.8218C476.89 71.7474 494.827 88.8499 499.833 93.8556C505.291 99.3135 505.035 103.819 504.881 106.542C504.859 106.941 504.838 107.301 504.838 107.621C504.838 110.124 499.833 117.632 489.821 127.644C481.812 135.653 480.644 145.163 481.062 148.917C480.644 153.506 483.064 165.686 496.078 177.7C509.093 189.713 527.364 186.877 534.872 183.957C544.883 180.954 549.055 182.705 549.889 183.957L563.654 234.013C566.658 240.02 560.735 244.024 557.397 245.276C527.364 251.283 520.106 259.041 518.604 274.058C516.101 299.086 517.352 306.595 521.107 309.098C533.621 313.686 559.4 324.865 562.403 332.874C565.406 340.883 550.306 372.085 542.381 386.685C540.378 390.689 529.866 387.519 524.861 385.433C519.855 383.431 509.427 382.096 504.838 381.679C488.82 384.683 478.142 411.296 474.805 424.227C473.803 429.233 487.736 447.17 494.827 455.512C501.835 459.517 486.901 476.369 478.559 484.295C460.539 503.316 451.028 502.232 448.525 499.312C431.506 478.288 416.406 477.203 410.983 479.289C405.977 479.289 396.383 485.129 392.212 488.049C381.199 493.055 376.778 501.421 375.943 504.979C381.95 534.541 378.446 545.22 375.943 546.865C370.938 549.868 342.99 557.293 329.641 560.631C318.629 564.635 312.539 548.116 310.87 539.357C305.865 519.334 295.853 516.831 277.082 516.831C260.814 515.58 252.68 518.083 250.803 523.088C238.789 555.124 229.112 559.796 225.774 559.379L175.718 540.608C169.188 539.675 173.784 523.445 176.547 513.686C177.491 510.354 178.221 507.776 178.221 506.82C180.701 495.248 169.702 488.282 160.86 482.683C158.993 481.501 157.223 480.38 155.696 479.289C143.182 469.278 133.17 472.615 128.165 476.786C106.14 496.809 95.6281 496.809 93.1253 494.306L58.0859 454.261C55.5831 450.507 67.68 437.158 73.1028 431.736C83.114 422.976 84.7826 413.382 83.114 407.959L70.6 386.685C67.2629 380.428 56.0836 368.915 38.0634 372.919C20.0431 376.924 13.8695 373.754 13.0352 371.668C9.28099 357.068 1.52225 326.617 0.521125 321.612C-0.480001 316.606 20.1265 308.68 30.5549 305.343C46.6611 297.827 46.1838 282.941 45.7236 268.589C45.6475 266.214 45.5718 263.854 45.5718 261.544C45.5718 245.276 28.0521 240.27 26.8007 240.27C4.77592 232.261 1.77255 223.585 3.02395 220.248C8.02958 206.899 18.2911 178.951 19.2922 173.946C20.2934 168.94 35.5605 172.694 43.069 175.197C62.0904 183.206 73.1028 168.94 78.1084 160.18C90.6225 143.912 87.7025 127.644 83.114 123.889C65.0938 104.868 65.5943 94.2727 68.0971 91.3527C77.6913 82.1757 98.1309 62.8207 103.137 58.8161C108.142 54.8116 122.742 65.6511 129.416 71.5714C149.439 87.5895 164.456 76.5771 170.713 71.5714C171.802 70.7001 173.164 69.8287 174.65 68.8781C181.701 64.368 191.54 58.0746 188.232 41.5377C186.147 31.1093 185.729 11.5039 193.238 9.00106L237.037 0.241222ZM106.01 280.315C106.01 377.56 184.843 456.393 282.088 456.393C379.333 456.393 458.165 377.56 458.165 280.315C458.165 183.07 379.333 104.238 282.088 104.238C184.843 104.238 106.01 183.07 106.01 280.315ZM282.088 435.49C367.788 435.49 437.262 366.016 437.262 280.315C437.262 194.615 367.788 125.141 282.088 125.141C196.387 125.141 126.913 194.615 126.913 280.315C126.913 366.016 196.387 435.49 282.088 435.49ZM282.088 413.035C208.789 413.035 149.368 353.615 149.368 280.315C149.368 207.016 208.789 147.595 282.088 147.595C355.387 147.595 414.808 207.016 414.808 280.315C414.808 353.615 355.387 413.035 282.088 413.035Z" fill="#04BADC"/>
</svg>
