<svg width="458" height="449" viewBox="0 0 458 449" fill="none" xmlns="http://www.w3.org/2000/svg">
<rect width="458" height="449" fill="#1E1E1E"/>
<path fill-rule="evenodd" clip-rule="evenodd" d="M257.724 3.55459C260.913 3.48137 267.007 7.78231 265.874 25.5718C264.823 42.0589 275.947 45.2115 282.977 47.2035C283.532 47.3609 284.062 47.511 284.558 47.6599C291.335 49.6935 301.391 52.0534 306.765 51.0348C311.905 50.0604 320.713 38.9579 325.943 32.3658C327.547 30.3434 328.815 28.7456 329.536 27.9948C331.995 25.4364 335.611 26.5165 337.112 27.3762C346.509 33.5634 366.214 46.4173 369.859 48.3351C373.504 50.2529 370.962 55.19 369.235 57.4188C365.175 62.7243 357.567 75.1375 359.619 82.3459C361.727 89.7536 362.757 91.2676 365.874 95.8515C366.548 96.8433 367.32 97.9789 368.222 99.3489C373.292 107.051 382.405 111.845 389.466 112.934C394.537 113.716 403.365 109.251 409.69 106.052C412.172 104.797 414.269 103.736 415.601 103.265C419.382 101.927 421.694 104.063 422.378 105.298C427.031 113.218 437.02 130.294 439.755 135.235C442.737 140.622 441.515 143.965 440.777 145.985C440.669 146.28 440.571 146.548 440.498 146.789C439.93 148.679 434.35 153.185 424.33 158.419C416.313 162.606 413.247 169.515 412.717 172.446C411.351 175.813 410.454 185.57 417.792 197.661C425.13 209.752 439.91 211.852 446.382 211.391C454.81 211.447 457.639 213.738 458 214.877L457.272 255.862C458.23 261.094 452.737 262.742 449.871 262.912C425.27 260.475 417.891 264.647 413.316 275.636C405.691 293.949 404.952 299.908 407.288 302.669C415.926 309.039 433.329 323.463 433.832 330.206C434.335 336.95 415.56 357 406.11 366.182C403.651 368.741 396.239 363.907 392.841 361.17C389.423 358.497 381.659 355.068 378.204 353.688C365.129 352.237 350.818 369.849 345.297 378.837C343.385 382.384 350.086 399.159 353.676 407.104C358.187 411.754 342.804 421.01 334.548 425.056C316.283 435.233 309.172 432.206 307.899 429.421C299.511 409.598 288.075 405.274 283.406 405.59C279.533 404.428 270.784 406.609 266.893 407.845C257.235 409.068 251.913 414.358 250.459 416.85C248.386 440.562 243.248 447.811 240.938 448.472C236.383 449.577 213.073 448.695 201.988 448.115C192.558 448.582 191.601 434.697 192.301 427.697C192.98 411.419 185.804 407.205 171.281 402.848C158.98 398.126 152.118 398.128 149.528 401.471C132.952 422.867 124.403 424.148 121.916 423.058L87.4575 397.267C82.6178 395.047 89.8626 383.86 94.2184 377.135C95.706 374.838 96.8567 373.061 97.0739 372.34C101.623 364.179 94.6966 356.367 89.1293 350.088C87.9538 348.762 86.8388 347.504 85.9053 346.326C78.4995 335.863 69.9958 336.058 65.1751 338.045C43.5846 348.048 35.4522 345.608 34.0849 343.138L16.0793 304.772C14.9964 301.356 27.3892 294.087 32.8171 291.252C42.5534 286.963 46.0251 280.108 45.9668 275.626L41.1211 256.661C39.9616 251.162 33.9298 239.875 19.0784 238.715C4.2269 237.555 0.171346 233.729 0 231.96C0.41416 220.067 1.33331 195.277 1.6966 191.265C2.05989 187.254 19.8035 186.054 28.6298 185.956C42.7987 184.021 45.8132 172.671 48.7195 161.729C49.2004 159.919 49.6783 158.12 50.2033 156.376C53.9012 144.094 41.485 136.248 40.5169 135.958C25.2981 124.799 24.9467 117.551 26.6734 115.322C33.5801 106.407 47.8716 87.69 49.7839 84.1434C51.6962 80.5968 62.6542 86.9753 67.8941 90.6078C80.7894 101.07 92.5517 92.8563 98.4155 87.4051C111.795 78.0285 113.234 65.069 110.537 61.1696C100.92 42.6262 103.715 34.7435 106.315 33.1202C115.824 28.4193 136.036 18.5522 140.819 16.6911C145.602 14.8299 154.433 26.4024 158.25 32.4213C170.1 49.1621 184.221 44.3345 190.199 42.008C191.24 41.603 192.492 41.2614 193.858 40.8888C200.338 39.1207 209.38 36.6536 210.58 23.4013C211.337 15.0443 215.47 0.146438 221.848 0L257.724 3.55459ZM227.763 368.591C306.82 368.591 370.908 304.611 370.908 225.689C370.908 146.766 306.82 82.7864 227.763 82.7864C148.707 82.7864 84.6185 146.766 84.6185 225.689C84.6185 304.611 148.707 368.591 227.763 368.591Z" fill="#04BADC"/>
</svg>
